<svg xmlns="http://www.w3.org/2000/svg" width="20" height="18" viewBox="0 0 375 486" fill="white" class="my-2 fill-white opacity-100 duration-100 hover:scale-110 hover:opacity-100 dark:fill-white-600">
  <path d="M0 178.875C0 116.93 0 85.9579 11.8637 62.2149C22.753 40.4221 40.4221 22.753 62.2149 11.8637C85.9579 0 116.93 0 178.875 0H375V46.1251C375 108.07 375 139.042 363.136 162.785C352.247 184.578 334.578 202.247 312.785 213.136C289.042 225 258.07 225 196.125 225H0V178.875Z" fill=""></path>
  <path d="M0 439.875C0 377.93 0 346.958 11.8637 323.215C22.753 301.422 40.4221 283.753 62.2149 272.864C85.9579 261 116.93 261 178.875 261H225V307.125C225 369.07 225 400.042 213.136 423.785C202.247 445.578 184.578 463.247 162.785 474.136C139.042 486 108.07 486 46.125 486H0V439.875Z" fill=""></path>
</svg>